<mxfile host="app.diagrams.net" agent="Mozilla/5.0 (Windows NT 10.0; Win64; x64) AppleWebKit/537.36 (KHTML, like Gecko) Chrome/128.0.0.0 YaBrowser/24.10.0.0 Safari/537.36" version="24.8.3">
  <diagram name="Page-1" id="e3a06f82-3646-2815-327d-82caf3d4e204">
    <mxGraphModel dx="2206.5" dy="2289" grid="1" gridSize="10" guides="1" tooltips="1" connect="1" arrows="1" fold="1" page="1" pageScale="1.5" pageWidth="1169" pageHeight="826" background="none" math="0" shadow="0">
      <root>
        <mxCell id="0" style=";html=1;" />
        <mxCell id="1" style=";html=1;" parent="0" />
        <mxCell id="B_vZKg5KkVZf3Ew9MdYI-2" value="Frontend" style="whiteSpace=wrap;html=1;fillColor=#EDEDED;fontSize=14;strokeColor=none;verticalAlign=top;" vertex="1" parent="1">
          <mxGeometry x="1800" y="120" width="200" height="360" as="geometry" />
        </mxCell>
        <mxCell id="B_vZKg5KkVZf3Ew9MdYI-3" value="Backend" style="whiteSpace=wrap;html=1;fillColor=#EDEDED;fontSize=14;strokeColor=none;verticalAlign=top;" vertex="1" parent="1">
          <mxGeometry x="2040" y="120" width="200" height="362" as="geometry" />
        </mxCell>
        <mxCell id="B_vZKg5KkVZf3Ew9MdYI-4" value="Database" style="whiteSpace=wrap;html=1;fillColor=#EDEDED;fontSize=14;strokeColor=none;verticalAlign=top;" vertex="1" parent="1">
          <mxGeometry x="2280" y="120" width="200" height="369.75" as="geometry" />
        </mxCell>
        <mxCell id="B_vZKg5KkVZf3Ew9MdYI-6" value="WebSite (React)" style="rounded=1;whiteSpace=wrap;html=1;" vertex="1" parent="1">
          <mxGeometry x="1840" y="177" width="120" height="60" as="geometry" />
        </mxCell>
        <mxCell id="B_vZKg5KkVZf3Ew9MdYI-7" value="PostgreSQL" style="shape=cylinder3;whiteSpace=wrap;html=1;boundedLbl=1;backgroundOutline=1;size=15;" vertex="1" parent="1">
          <mxGeometry x="2340" y="156" width="80" height="80" as="geometry" />
        </mxCell>
        <mxCell id="B_vZKg5KkVZf3Ew9MdYI-8" value="Authentication Service" style="rounded=1;whiteSpace=wrap;html=1;" vertex="1" parent="1">
          <mxGeometry x="2065" y="177" width="150" height="60" as="geometry" />
        </mxCell>
        <mxCell id="B_vZKg5KkVZf3Ew9MdYI-9" value="BugTracker Service (WebApi)" style="rounded=1;whiteSpace=wrap;html=1;" vertex="1" parent="1">
          <mxGeometry x="2065" y="252" width="150" height="60" as="geometry" />
        </mxCell>
        <mxCell id="B_vZKg5KkVZf3Ew9MdYI-10" value="No SQL" style="shape=cylinder3;whiteSpace=wrap;html=1;boundedLbl=1;backgroundOutline=1;size=15;" vertex="1" parent="1">
          <mxGeometry x="2340" y="254" width="80" height="80" as="geometry" />
        </mxCell>
      </root>
    </mxGraphModel>
  </diagram>
</mxfile>
